# xmcd
#
# Track frame offsets:
#  150
#  20084
#  33200
#  49688
#  66332
#  84469
#  96169
#  116550
#  131197
#  142576
#  159556
#  169751
#  188658
#  205452
#
# Disc length: 2931 seconds
#
# Revision: 0
# Processed by: cddbd v1.5.2PL0 Copyright (c) Steve Scherf et al.
# Submitted via: AltoMP3_Maker 3.0
#
DISCID=be0b710e
DTITLE=Beverley Arnold - Never Too Late
DYEAR=1900
DGENRE=
TTITLE0=If I Could
TTITLE1=Taste The Wine
TTITLE2=Let My Love Calm Troubled Skies
TTITLE3=Time Won't Wait
TTITLE4=Looking For a Love
TTITLE5=Never Too late
TTITLE6=Let Me Down Gently
TTITLE7=Take My Hand
TTITLE8=You Cried The Night You Told Me
TTITLE9=As They Danced
TTITLE10=Are You Thinking Me A Fool
TTITLE11=Now You've Gone
TTITLE12=I am Here To Stay
TTITLE13=On The First Day
EXTD=
EXTT0=
EXTT1=
EXTT2=
EXTT3=
EXTT4=
EXTT5=
EXTT6=
EXTT7=
EXTT8=
EXTT9=
EXTT10=
EXTT11=
EXTT12=
EXTT13=
PLAYORDER=
